/* XPM */
static char *go_back_xpm[] = {

"175 16 2 1 ",
"  c None",
". c #ffffff",

"       ...                            ..........            .......                            ..........                ......                ......             ...       ...",
"       ...                            ..........            .......                            ..........                ......                ......             ...       ...",
"       ...                            ..........            .......                            ..........                ......                ......             ...       ...",
"   ....                            ...                   ....      ...                         ....      ...          ...      ...          ...      ....         ...   ....   ",
"   ....                            ...                   ...       ...                         ....      ...          ...      ...          ...      ....         ...   ....   ",
"   ....                            ...                   ...       ...                         ....      ...          ...      ...          ...      ....         ...   ....   ",
"...                                ...   .......         ...       ...                         ..........             ............          ...                   ......       ",
"...                                ...   .......         ...       ...                         ..........             ............          ...                   ......       ",
"...                                ...   .......         ...       ...                         ..........             ............          ...                   ......       ",
"                                   ...      ....         ...       ...                         ....                   ...      ...          ...                   ...          ",
"   ....                            ...       ...         ...       ...                         ....      ...          ...      ...          ...      ....         ...   ....   ",
"   ....                            ...       ...         ...       ...                         ....      ...          ...      ...          ...      ....         ...   ....   ",
"   ....                            ...       ..           ..       ...                         ....      ...          ...      ...          ...      ...          ...    ...   ",
"       ...                            .......               .......                            ..........             ...      ...             ......             ...       ...",
"       ...                            .......               .......                            ..........             ...      ...             ......             ...       ...",
"       ...                            .......               .......                            ..........             ...      ...             ......             ...       ..."
};
