/* XPM */
static char *go_back_highlight_xpm[] = {

"175 16 81 1 ",
"  c None",
". c #ff0000",
"X c #ff0000",
"o c #ff0000",
"O c #ff0000",
"+ c #ff0000",
"@ c #ff0000",
"# c #ff0000",
"$ c #ff0000",
"% c #ff0000",
"& c #ff0000",
"* c #ff0000",
"= c #ff0000",
"- c #ff0000",
"; c #ff0000",
": c #ff0000",
"> c #ff0000",
", c #ff0000",
"< c #ff0000",
"1 c #ff0000",
"2 c #ff0000",
"3 c #ff0000",
"4 c #ff0000",
"5 c #ff0000",
"6 c #ff0000",
"7 c #ff0000",
"8 c #ff0000",
"9 c None",
"0 c #ff0000",
"q c #ff0000",
"w c #ff0000",
"e c #ff0000",
"r c #ff0000",
"t c #ff0000",
"y c #ff0000",
"u c #ff0000",
"i c #ff0000",
"p c #ff0000",
"a c #ff0000",
"s c #ff0000",
"d c #ff0000",
"f c #ff0000",
"g c #ff0000",
"h c #ff0000",
"j c #ff0000",
"k c #ff0000",
"l c #ff0000",
"z c #ff0000",
"x c #ff0000",
"c c #ff0000",
"v c #ff0000",
"b c #ff0000",
"n c #ff0000",
"m c #ff0000",
"M c #ff0000",
"N c #ff0000",
"B c #ff0000",
"V c #ff0000",
"C c #ff0000",
"Z c #ff0000",
"A c #ff0000",
"S c #ff0000",
"D c #ff0000",
"F c #ff0000",
"G c #ff0000",
"H c #ff0000",
"J c #ff0000",
"K c #ff0000",
"L c #ff0000",
"P c #ff0000",
"I c #ff0000",
"U c #ff0000",
"Y c #ff0000",
"T c #ff0000",
"R c #ff0000",
"E c #ff0000",
"W c #ff0000",
"Q c #ff0000",
"! c #ff0000",
"~ c #ff0000",
"^ c #000000",

"      .~~X                            o~~~~~~~~O            +~~~~~@                            #~~~~~~~~$               %~~~~~~&              *~~~~~~=            -~~;     :~~>",
"      .~~X                            o~~~~~~~~O            +~~~~~@                            #~~~~~~~~$               %~~~~~~&              *~~~~~~=            -~~;     :~~>",
"      .~~X                            o~~~~~~~~O            +~~~~~@                            #~~~~~~~~$               %~~~~~~&              *~~~~~~=            -~~;     :~~>",
"   ,~~<112                         3~~4111111115         6~~7111118~~9                         #~~011111q~~~w        e@@,&&&&&&#@@r        1~~9111111t~~y         -~~;  #~~011u",
"   ,~~i                            3~~p                  6~~a     1~~9                         #~~s     d~~~w        =~~f      @~~g        1~~9      h~~y         -~~;  #~~s   ",
"   ,~~i                            3~~p                  6~~a     1~~9                         #~~s     d~~~w        =~~f      @~~g        1~~9      h~~y         -~~;  #~~s   ",
"j~~k                               3~~p  l~~~~~O         6~~a     1~~9                         #~~~~~~~~$            =~~~~~~~~~~~~g        1~~9      u;;z         -~~~~~x      ",
"j~~k                               3~~p  l~~~~~O         6~~a     1~~9                         #~~~~~~~~$            =~~~~~~~~~~~~g        1~~9                   -~~~~~x      ",
"j~~k                               3~~p  l~~~~~O         6~~a     1~~9                         #~~~~~~~~$            =~~~~~~~~~~~~g        1~~9                   -~~~~~x      ",
"c;;;;;z                            3~~p  v;;b~~O         6~~a     1~~9                         #~~n;;;;;;;;;m        =~~M;;;;;;N~~g        1~~9      u;;z         -~~B;;;;;d   ",
"   ,~~i                            3~~p     V~~O         6~~a     1~~9                         #~~s     d~~~w        =~~f      @~~g        1~~9      h~~y         -~~;  #~~s   ",
"   ,~~i                            3~~p     V~~O         6~~a     1~~9                         #~~s     d~~~w        =~~f      @~~g        1~~9      h~~y         -~~;  #~~s   ",
"   CZZA;;S                         DFFG;;;;;HFFJ         KFF4;;;;;LFFP                         #~~n;;;;;eZZZI        =~~f      @~~g        UZZY;;;;;;TZZR         -~~;  EZZW;;Q",
"      .~~X                            o~~~~~!               +~~~~~@                            #~~~~~~~~$            =~~f      @~~g           *~~~~~~=            -~~;     :~~>",
"      .~~X                            o~~~~~!               +~~~~~@                            #~~~~~~~~$            =~~f      @~~g           *~~~~~~=            -~~;     :~~>",
"      .~~X                            o~~~~~!               +~~~~~@                            #~~~~~~~~$            =~~f      @~~g           *~~~~~~=            -~~;     :~~>"
};
