/* XPM */
static char *menu_exit_highlight_xpm[] = {

"168 40 21 1 ",
"  c None",
". c #FF0000",
"X c #FF0000",
"o c #FF0000",
"O c #FF0000",
"+ c #FF0000",
"@ c #FF0000",
"# c None",
"$ c #FF0000",
"% c #FF0000",
"& c #FF0000",
"* c #FF0000",
"= c #FF0000",
"- c #FF0000",
"; c #FF0000",
": c #FF0000",
"> c #FF0000",
", c #FF0000",
"< c #FF0000",
"1 c #FF0000",
"2 c #000000",

".11111111111111111111111X                       o1111111O                       +1111111@                       #111111#                       $11111111111111111111111%",
".11111111111111111111111X                       o1111111O                       +1111111@                       #111111#                       $11111111111111111111111%",
".11111111111111111111111X                       o1111111O                       +1111111@                       #111111#                       $11111111111111111111111%",
".11111111111111111111111X                       o1111111O                       +1111111@                       #111111#                       $11111111111111111111111%",
".11111111111111111111111X                       o1111111O                       +1111111@                       #111111#                       $11111111111111111111111%",
".11111111111111111111111X                       o1111111O                       +1111111@                       #111111#                       $11111111111111111111111%",
".11111111111111111111111X                       o1111111O                       +1111111@                       #111111#                       $11111111111111111111111%",
".11111111111111111111111X                       o1111111O                       +1111111@                       #111111#                       $11111111111111111111111%",
".1111111&                                               *1111111=       -1111111;                               #111111#                               :1111111>        ",
".1111111&                                               *1111111=       -1111111;                               #111111#                               :1111111>        ",
".1111111&                                               *1111111=       -1111111;                               #111111#                               :1111111>        ",
".1111111&                                               *1111111=       -1111111;                               #111111#                               :1111111>        ",
".1111111&                                               *1111111=       -1111111;                               #111111#                               :1111111>        ",
".1111111&                                               *1111111=       -1111111;                               #111111#                               :1111111>        ",
".1111111&                                               *1111111=       -1111111;                               #111111#                               :1111111>        ",
".1111111&                                               *1111111=       -1111111;                               #111111#                               :1111111>        ",
".11111111111111111111111X                                       ,1111111<                                       #111111#                               :1111111>        ",
".11111111111111111111111X                                       ,1111111<                                       #111111#                               :1111111>        ",
".11111111111111111111111X                                       ,1111111<                                       #111111#                               :1111111>        ",
".11111111111111111111111X                                       ,1111111<                                       #111111#                               :1111111>        ",
".11111111111111111111111X                                       ,1111111<                                       #111111#                               :1111111>        ",
".11111111111111111111111X                                       ,1111111<                                       #111111#                               :1111111>        ",
".11111111111111111111111X                                       ,1111111<                                       #111111#                               :1111111>        ",
".11111111111111111111111X                                       ,1111111<                                       #111111#                               :1111111>        ",
".1111111&                                               *1111111=       -1111111;                               #111111#                               :1111111>        ",
".1111111&                                               *1111111=       -1111111;                               #111111#                               :1111111>        ",
".1111111&                                               *1111111=       -1111111;                               #111111#                               :1111111>        ",
".1111111&                                               *1111111=       -1111111;                               #111111#                               :1111111>        ",
".1111111&                                               *1111111=       -1111111;                               #111111#                               :1111111>        ",
".1111111&                                               *1111111=       -1111111;                               #111111#                               :1111111>        ",
".1111111&                                               *1111111=       -1111111;                               #111111#                               :1111111>        ",
".1111111&                                               *1111111=       -1111111;                               #111111#                               :1111111>        ",
".11111111111111111111111X                       o1111111O                       +1111111@                       #111111#                               :1111111>        ",
".11111111111111111111111X                       o1111111O                       +1111111@                       #111111#                               :1111111>        ",
".11111111111111111111111X                       o1111111O                       +1111111@                       #111111#                               :1111111>        ",
".11111111111111111111111X                       o1111111O                       +1111111@                       #111111#                               :1111111>        ",
".11111111111111111111111X                       o1111111O                       +1111111@                       #111111#                               :1111111>        ",
".11111111111111111111111X                       o1111111O                       +1111111@                       #111111#                               :1111111>        ",
".11111111111111111111111X                       o1111111O                       +1111111@                       #111111#                               :1111111>        ",
".11111111111111111111111X                       o1111111O                       +1111111@                       #111111#                               :1111111>        "
};
