/* XPM */
static char *menu_exit_xpm[] = {

"168 40 2 1 ",
"  c None",
". c #000000",

" ........................                        .......                        ........                        ........                        ........................",
" ........................                        .......                        ........                        ........                        ........................",
" ........................                        .......                        ........                        ........                        ........................",
" ........................                        .......                        ........                        ........                        ........................",
" ........................                        .......                        ........                        ........                        ........................",
" ........................                        .......                        ........                        ........                        ........................",
" ........................                        .......                        ........                        ........                        ........................",
" ........................                        .......                        ........                        ........                        ........................",
" ........                                               ........        ........                                ........                                ........        ",
" ........                                               ........        ........                                ........                                ........        ",
" ........                                               ........        ........                                ........                                ........        ",
" ........                                               ........        ........                                ........                                ........        ",
" ........                                               ........        ........                                ........                                ........        ",
" ........                                               ........        ........                                ........                                ........        ",
" ........                                               ........        ........                                ........                                ........        ",
" ........                                               ........        ........                                ........                                ........        ",
" ........................                                       ........                                        ........                                ........        ",
" ........................                                       ........                                        ........                                ........        ",
" ........................                                       ........                                        ........                                ........        ",
" ........................                                       ........                                        ........                                ........        ",
" ........................                                       ........                                        ........                                ........        ",
" ........................                                       ........                                        ........                                ........        ",
" ........................                                       ........                                        ........                                ........        ",
" ........................                                       ........                                        ........                                ........        ",
" ........                                               ........        ........                                ........                                ........        ",
" ........                                               ........        ........                                ........                                ........        ",
" ........                                               ........        ........                                ........                                ........        ",
" ........                                               ........        ........                                ........                                ........        ",
" ........                                               ........        ........                                ........                                ........        ",
" ........                                               ........        ........                                ........                                ........        ",
" ........                                               ........        ........                                ........                                ........        ",
" ........                                               ........        ........                                ........                                ........        ",
" ........................                        .......                        ........                        ........                                ........        ",
" ........................                        .......                        ........                        ........                                ........        ",
" ........................                        .......                        ........                        ........                                ........        ",
" ........................                        .......                        ........                        ........                                ........        ",
" ........................                        .......                        ........                        ........                                ........        ",
" ........................                        .......                        ........                        ........                                ........        ",
" ........................                        .......                        ........                        ........                                ........        ",
" ........................                        .......                        ........                        ........                                ........        "
};
