/* XPM */
static char *menu_instructions_xpm[] = {

"184 40 2 1 ",
"  c None",
". c #000000",

" ........                ........                       ........................                        ........                                        ........................        ",
" ........                ........                       ........................                        ........                                        ........................        ",
" ........                ........                       ........................                        ........                                        ........................        ",
" ........                ........                       ........................                        ........                                        ........................        ",
" ........                ........                       ........................                        ........                                        ........................        ",
" ........                ........                       ........................                        ........                                        ........................        ",
" ........                ........                       ........................                        ........                                        ........................        ",
" ........                ........                       ........................                        ........                                        ........................        ",
" ........                ........                       ........                                        ........                                        ........               ........ ",
" ........                ........                       ........                                        ........                                        ........               ........ ",
" ........                ........                       ........                                        ........                                        ........               ........ ",
" ........                ........                       ........                                        ........                                        ........               ........ ",
" ........                ........                       ........                                        ........                                        ........               ........ ",
" ........                ........                       ........                                        ........                                        ........               ........ ",
" ........                ........                       ........                                        ........                                        ........               ........ ",
" ........                ........                       ........                                        ........                                        ........               ........ ",
" ................................                       ........................                        ........                                        ........................        ",
" ................................                       ........................                        ........                                        ........................        ",
" ................................                       ........................                        ........                                        ........................        ",
" ................................                       ........................                        ........                                        ........................        ",
" ................................                       ........................                        ........                                        ........................        ",
" ................................                       ........................                        ........                                        ........................        ",
" ................................                       ........................                        ........                                        ........................        ",
" ................................                       ........................                        ........                                        ........................        ",
" ........                ........                       ........                                        ........                                        ........                        ",
" ........                ........                       ........                                        ........                                        ........                        ",
" ........                ........                       ........                                        ........                                        ........                        ",
" ........                ........                       ........                                        ........                                        ........                        ",
" ........                ........                       ........                                        ........                                        ........                        ",
" ........                ........                       ........                                        ........                                        ........                        ",
" ........                ........                       ........                                        ........                                        ........                        ",
" ........                ........                       ........                                        ........                                        ........                        ",
" ........                ........                       ........................                        ........................                        ........                        ",
" ........                ........                       ........................                        ........................                        ........                        ",
" ........                ........                       ........................                        ........................                        ........                        ",
" ........                ........                       ........................                        ........................                        ........                        ",
" ........                ........                       ........................                        ........................                        ........                        ",
" ........                ........                       ........................                        ........................                        ........                        ",
" ........                ........                       ........................                        ........................                        ........                        ",
" ........                ........                       ........................                        ........................                        ........                        "
};
