/* XPM */
static char *menu_instructions_highlight_xpm[] = {

"184 40 17 1 ",
"  c None",
". c #FF0000",
"X c #FF0000",
"o c #FF0000",
"O c #FF0000",
"+ c #FF0000",
"@ c #FF0000",
"# c None",
"$ c #FF0000",
"% c #FF0000",
"& c #FF0000",
"* c #FF0000",
"= c #FF0000",
"- c #FF0000",
"; c #FF0000",
": c #FF0000",
"> c #000000",

".:::::::X               o:::::::O                       +:::::::::::::::::::::::@                       #:::::::$                                      %:::::::::::::::::::::::&        ",
".:::::::X               o:::::::O                       +:::::::::::::::::::::::@                       #:::::::$                                      %:::::::::::::::::::::::&        ",
".:::::::X               o:::::::O                       +:::::::::::::::::::::::@                       #:::::::$                                      %:::::::::::::::::::::::&        ",
".:::::::X               o:::::::O                       +:::::::::::::::::::::::@                       #:::::::$                                      %:::::::::::::::::::::::&        ",
".:::::::X               o:::::::O                       +:::::::::::::::::::::::@                       #:::::::$                                      %:::::::::::::::::::::::&        ",
".:::::::X               o:::::::O                       +:::::::::::::::::::::::@                       #:::::::$                                      %:::::::::::::::::::::::&        ",
".:::::::X               o:::::::O                       +:::::::::::::::::::::::@                       #:::::::$                                      %:::::::::::::::::::::::&        ",
".:::::::X               o:::::::O                       +:::::::::::::::::::::::@                       #:::::::$                                      %:::::::::::::::::::::::&        ",
".:::::::X               o:::::::O                       +:::::::*                                       #:::::::$                                      %:::::::=               &:::::::-",
".:::::::X               o:::::::O                       +:::::::*                                       #:::::::$                                      %:::::::=               &:::::::-",
".:::::::X               o:::::::O                       +:::::::*                                       #:::::::$                                      %:::::::=               &:::::::-",
".:::::::X               o:::::::O                       +:::::::*                                       #:::::::$                                      %:::::::=               &:::::::-",
".:::::::X               o:::::::O                       +:::::::*                                       #:::::::$                                      %:::::::=               &:::::::-",
".:::::::X               o:::::::O                       +:::::::*                                       #:::::::$                                      %:::::::=               &:::::::-",
".:::::::X               o:::::::O                       +:::::::*                                       #:::::::$                                      %:::::::=               &:::::::-",
".:::::::X               o:::::::O                       +:::::::*                                       #:::::::$                                      %:::::::=               &:::::::-",
".:::::::::::::::::::::::::::::::O                       +:::::::::::::::::::::::@                       #:::::::$                                      %:::::::::::::::::::::::&        ",
".:::::::::::::::::::::::::::::::O                       +:::::::::::::::::::::::@                       #:::::::$                                      %:::::::::::::::::::::::&        ",
".:::::::::::::::::::::::::::::::O                       +:::::::::::::::::::::::@                       #:::::::$                                      %:::::::::::::::::::::::&        ",
".:::::::::::::::::::::::::::::::O                       +:::::::::::::::::::::::@                       #:::::::$                                      %:::::::::::::::::::::::&        ",
".:::::::::::::::::::::::::::::::O                       +:::::::::::::::::::::::@                       #:::::::$                                      %:::::::::::::::::::::::&        ",
".:::::::::::::::::::::::::::::::O                       +:::::::::::::::::::::::@                       #:::::::$                                      %:::::::::::::::::::::::&        ",
".:::::::::::::::::::::::::::::::O                       +:::::::::::::::::::::::@                       #:::::::$                                      %:::::::::::::::::::::::&        ",
".:::::::::::::::::::::::::::::::O                       +:::::::::::::::::::::::@                       #:::::::$                                      %:::::::::::::::::::::::&        ",
".:::::::X               o:::::::O                       +:::::::*                                       #:::::::$                                      %:::::::=                        ",
".:::::::X               o:::::::O                       +:::::::*                                       #:::::::$                                      %:::::::=                        ",
".:::::::X               o:::::::O                       +:::::::*                                       #:::::::$                                      %:::::::=                        ",
".:::::::X               o:::::::O                       +:::::::*                                       #:::::::$                                      %:::::::=                        ",
".:::::::X               o:::::::O                       +:::::::*                                       #:::::::$                                      %:::::::=                        ",
".:::::::X               o:::::::O                       +:::::::*                                       #:::::::$                                      %:::::::=                        ",
".:::::::X               o:::::::O                       +:::::::*                                       #:::::::$                                      %:::::::=                        ",
".:::::::X               o:::::::O                       +:::::::*                                       #:::::::$                                      %:::::::=                        ",
".:::::::X               o:::::::O                       +:::::::::::::::::::::::@                       #::::::::::::::::::::::;                       %:::::::=                        ",
".:::::::X               o:::::::O                       +:::::::::::::::::::::::@                       #::::::::::::::::::::::;                       %:::::::=                        ",
".:::::::X               o:::::::O                       +:::::::::::::::::::::::@                       #::::::::::::::::::::::;                       %:::::::=                        ",
".:::::::X               o:::::::O                       +:::::::::::::::::::::::@                       #::::::::::::::::::::::;                       %:::::::=                        ",
".:::::::X               o:::::::O                       +:::::::::::::::::::::::@                       #::::::::::::::::::::::;                       %:::::::=                        ",
".:::::::X               o:::::::O                       +:::::::::::::::::::::::@                       #::::::::::::::::::::::;                       %:::::::=                        ",
".:::::::X               o:::::::O                       +:::::::::::::::::::::::@                       #::::::::::::::::::::::;                       %:::::::=                        ",
".:::::::X               o:::::::O                       +:::::::::::::::::::::::@                       #::::::::::::::::::::::;                       %:::::::=                        "
};
