/* XPM */
static char *menu_start_xpm[] = {

"239 40 2 1 ",
"  c None",
". c #000000",

"         ........................                       ........................                                ................                                .......................                                ........................",
"         ........................                       ........................                                ................                                .......................                                ........................",
"         ........................                       ........................                                ................                                .......................                                ........................",
"         ........................                       ........................                                ................                                .......................                                ........................",
"         ........................                       ........................                                ................                                .......................                                ........................",
"         ........................                       ........................                                ................                                .......................                                ........................",
"         ........................                       ........................                                ................                                .......................                                ........................",
"         ........................                       ........................                                ................                                .......................                                ........................",
" ........                                                       ........                                ........                ........                        ........               ........                                ........        ",
" ........                                                       ........                                ........                ........                        ........               ........                                ........        ",
" ........                                                       ........                                ........                ........                        ........               ........                                ........        ",
" ........                                                       ........                                ........                ........                        ........               ........                                ........        ",
" ........                                                       ........                                ........                ........                        ........               ........                                ........        ",
" ........                                                       ........                                ........                ........                        ........               ........                                ........        ",
" ........                                                       ........                                ........                ........                        ........               ........                                ........        ",
" ........                                                       ........                                ........                ........                        ........               ........                                ........        ",
"         ................                                       ........                                ................................                        .......................                                        ........        ",
"         ................                                       ........                                ................................                        .......................                                        ........        ",
"         ................                                       ........                                ................................                        .......................                                        ........        ",
"         ................                                       ........                                ................................                        .......................                                        ........        ",
"         ................                                       ........                                ................................                        .......................                                        ........        ",
"         ................                                       ........                                ................................                        .......................                                        ........        ",
"         ................                                       ........                                ................................                        .......................                                        ........        ",
"         ................                                       ........                                ................................                        .......................                                        ........        ",
"                         ........                               ........                                ........                ........                        ........        .......                                        ........        ",
"                         ........                               ........                                ........                ........                        ........        .......                                        ........        ",
"                         ........                               ........                                ........                ........                        ........        .......                                        ........        ",
"                         ........                               ........                                ........                ........                        ........        .......                                        ........        ",
"                         ........                               ........                                ........                ........                        ........        .......                                        ........        ",
"                         ........                               ........                                ........                ........                        ........        .......                                        ........        ",
"                         ........                               ........                                ........                ........                        ........        .......                                        ........        ",
"                         ........                               ........                                ........                ........                        ........        .......                                        ........        ",
" ........................                                       ........                                ........                ........                        ........               ........                                ........        ",
" ........................                                       ........                                ........                ........                        ........               ........                                ........        ",
" ........................                                       ........                                ........                ........                        ........               ........                                ........        ",
" ........................                                       ........                                ........                ........                        ........               ........                                ........        ",
" ........................                                       ........                                ........                ........                        ........               ........                                ........        ",
" ........................                                       ........                                ........                ........                        ........               ........                                ........        ",
" ........................                                       ........                                ........                ........                        ........               ........                                ........        ",
" ........................                                       ........                                ........                ........                        ........               ........                                ........        "
};
