/* XPM */
static char *menu_start_highlight_xpm[] = {

"239 40 27 1 ",
"  c None",
". c #FF0000",
"X c #FF0000",
"o c #FF0000",
"O c #FF0000",
"+ c #FF0000",
"@ c #FF0000",
"# c #FF0000",
"$ c #FF0000",
"% c #FF0000",
"& c None",
"* c #FF0000",
"= c #FF0000",
"- c #FF0000",
"; c #FF0000",
": c #FF0000",
"> c #FF0000",
", c #FF0000",
"< c #FF0000",
"1 c #FF0000",
"2 c #FF0000",
"3 c #FF0000",
"4 c #FF0000",
"5 c #FF0000",
"6 c #FF0000",
"7 c #FF0000",
"8 c #000000",

"        .77777777777777777777777X                       o77777777777777777777777O                               +777777777777777@                              #77777777777777777777777$                               %7777777777777777777777&",
"        .77777777777777777777777X                       o77777777777777777777777O                               +777777777777777@                              #77777777777777777777777$                               %7777777777777777777777&",
"        .77777777777777777777777X                       o77777777777777777777777O                               +777777777777777@                              #77777777777777777777777$                               %7777777777777777777777&",
"        .77777777777777777777777X                       o77777777777777777777777O                               +777777777777777@                              #77777777777777777777777$                               %7777777777777777777777&",
"        .77777777777777777777777X                       o77777777777777777777777O                               +777777777777777@                              #77777777777777777777777$                               %7777777777777777777777&",
"        .77777777777777777777777X                       o77777777777777777777777O                               +777777777777777@                              #77777777777777777777777$                               %7777777777777777777777&",
"        .77777777777777777777777X                       o77777777777777777777777O                               +777777777777777@                              #77777777777777777777777$                               %7777777777777777777777&",
"        .77777777777777777777777X                       o77777777777777777777777O                               +777777777777777@                              #77777777777777777777777$                               %7777777777777777777777&",
"*7777777=                                                       -7777777#                               ;7777777:               >7777777,                      #7777777-               <77777771                               =7777777*       ",
"*7777777=                                                       -7777777#                               ;7777777:               >7777777,                      #7777777-               <77777771                               =7777777*       ",
"*7777777=                                                       -7777777#                               ;7777777:               >7777777,                      #7777777-               <77777771                               =7777777*       ",
"*7777777=                                                       -7777777#                               ;7777777:               >7777777,                      #7777777-               <77777771                               =7777777*       ",
"*7777777=                                                       -7777777#                               ;7777777:               >7777777,                      #7777777-               <77777771                               =7777777*       ",
"*7777777=                                                       -7777777#                               ;7777777:               >7777777,                      #7777777-               <77777771                               =7777777*       ",
"*7777777=                                                       -7777777#                               ;7777777:               >7777777,                      #7777777-               <77777771                               =7777777*       ",
"*7777777=                                                       -7777777#                               ;7777777:               >7777777,                      #7777777-               <77777771                               =7777777*       ",
"        27777777777777773                                       -7777777#                               ;7777777777777777777777777777777,                      #77777777777777777777777$                                       =7777777*       ",
"        27777777777777773                                       -7777777#                               ;7777777777777777777777777777777,                      #77777777777777777777777$                                       =7777777*       ",
"        27777777777777773                                       -7777777#                               ;7777777777777777777777777777777,                      #77777777777777777777777$                                       =7777777*       ",
"        27777777777777773                                       -7777777#                               ;7777777777777777777777777777777,                      #77777777777777777777777$                                       =7777777*       ",
"        27777777777777773                                       -7777777#                               ;7777777777777777777777777777777,                      #77777777777777777777777$                                       =7777777*       ",
"        27777777777777773                                       -7777777#                               ;7777777777777777777777777777777,                      #77777777777777777777777$                                       =7777777*       ",
"        27777777777777773                                       -7777777#                               ;7777777777777777777777777777777,                      #77777777777777777777777$                                       =7777777*       ",
"        27777777777777773                                       -7777777#                               ;7777777777777777777777777777777,                      #77777777777777777777777$                                       =7777777*       ",
"                        47777777X                               -7777777#                               ;7777777:               >7777777,                      #7777777-       57777777$                                       =7777777*       ",
"                        47777777X                               -7777777#                               ;7777777:               >7777777,                      #7777777-       57777777$                                       =7777777*       ",
"                        47777777X                               -7777777#                               ;7777777:               >7777777,                      #7777777-       57777777$                                       =7777777*       ",
"                        47777777X                               -7777777#                               ;7777777:               >7777777,                      #7777777-       57777777$                                       =7777777*       ",
"                        47777777X                               -7777777#                               ;7777777:               >7777777,                      #7777777-       57777777$                                       =7777777*       ",
"                        47777777X                               -7777777#                               ;7777777:               >7777777,                      #7777777-       57777777$                                       =7777777*       ",
"                        47777777X                               -7777777#                               ;7777777:               >7777777,                      #7777777-       57777777$                                       =7777777*       ",
"                        47777777X                               -7777777#                               ;7777777:               >7777777,                      #7777777-       57777777$                                       =7777777*       ",
"*777777777777777777777776                                       -7777777#                               ;7777777:               >7777777,                      #7777777-               <77777771                               =7777777*       ",
"*777777777777777777777776                                       -7777777#                               ;7777777:               >7777777,                      #7777777-               <77777771                               =7777777*       ",
"*777777777777777777777776                                       -7777777#                               ;7777777:               >7777777,                      #7777777-               <77777771                               =7777777*       ",
"*777777777777777777777776                                       -7777777#                               ;7777777:               >7777777,                      #7777777-               <77777771                               =7777777*       ",
"*777777777777777777777776                                       -7777777#                               ;7777777:               >7777777,                      #7777777-               <77777771                               =7777777*       ",
"*777777777777777777777776                                       -7777777#                               ;7777777:               >7777777,                      #7777777-               <77777771                               =7777777*       ",
"*777777777777777777777776                                       -7777777#                               ;7777777:               >7777777,                      #7777777-               <77777771                               =7777777*       ",
"*777777777777777777777776                                       -7777777#                               ;7777777:               >7777777,                      #7777777-               <77777771                               =7777777*       "
};
