/* XPM */
static char *no_xpm[] = {

"39 16 2 1 ",
"  c #ffffff",
". c None",

"   ..........   .............      ....",
"   ..........   .............      ....",
"   ..........   .............      ....",
"       ......   ..........   ......   .",
"       ......   ..........   ......   .",
"       ......   ..........   ......   .",
"   ....   ...   ..........   ......   .",
"   ....   ...   ..........   ......   .",
"   ....   ...   ..........   ......   .",
"   ..........   ..........   ......   .",
"   .......      ..........   ......   .",
"   .......      ..........   ......   .",
"   .......      ..........   ......   .",
"   ..........   .............      ....",
"   ..........   .............      ....",
"   ..........   .............      ...."
};
