/* XPM */
static char *yes_xpm[] = {

"58 16 2 1 ",
"  c None",
". c #ffffff",

"...          ...          .........             ......... ",
"...          ...          .........             ......... ",
"...          ...          .........             ......... ",
"   ....   ...             ...                ...          ",
"   ....   ...             ...                ...          ",
"   ....   ...             ...                ...          ",
"       ..                 .........             ......    ",
"       ...                .........             ......    ",
"       ...                .........             ......    ",
"       ...                ...                   ......    ",
"       ...                ...                         ... ",
"       ...                ...                         ... ",
"       ...                ...                         ... ",
"       ...                .........          .........    ",
"       ...                .........          .........    ",
"       ...                .........          .........    "
};
