/* XPM */
static char *yes_highlight_xpm[] = {

"58 16 46 1 ",
"  c None",
". c #ff0000",
"X c #ff0000",
"o c #ff0000",
"O c #ff0000",
"+ c #ff0000",
"@ c #ff0000",
"# c #ff0000",
"$ c #ff0000",
"% c #ff0000",
"& c #ff0000",
"* c #ff0000",
"= c #ff0000",
"- c #ff0000",
"; c None",
": c #ff0000",
"> c #ff0000",
", c #ff0000",
"< c #ff0000",
"1 c #ff0000",
"2 c #ff0000",
"3 c #ff0000",
"4 c #ff0000",
"5 c #ff0000",
"6 c #ff0000",
"7 c #ff0000",
"8 c #ff0000",
"9 c #ff0000",
"0 c #ff0000",
"q c #ff0000",
"w c #ff0000",
"e c #ff0000",
"r c #ff0000",
"t c #ff0000",
"y c #ff0000",
"u c #ff0000",
"i c #ff0000",
"p c #ff0000",
"a c #ff0000",
"s c #ff0000",
"d c #ff0000",
"f c #ff0000",
"g c #ff0000",
"h c #ff0000",
"j c #ff0000",
"k c #ffffff",

".jjX        ojjjO        +jjjjjjjjj@           #jjjjjjjjj$",
".jjX        ojjjO        +jjjjjjjjj@           #jjjjjjjjj$",
".jjX        ojjjO        +jjjjjjjjj@           #jjjjjjjjj$",
"%&&*jj=  -jj;&&&:        +jj>&&&&&&,        <jj1&&&&&&&&&2",
"   3jj=  -jj4            +jj5               <jj>          ",
"   3jj=  -jj4            +jj5               <jj>          ",
"   677899077q            +jjjjjjjjj@        @77,wwwwwwe   ",
"      rjjt               +jjjjjjjjj@           yjjjjjju   ",
"      rjjt               +jjjjjjjjj@           yjjjjjju   ",
"      rjjt               +jji777777p           qwwwwww@77a",
"      rjjt               +jj5                         sjj$",
"      rjjt               +jj5                         sjj$",
"      rjjt               +jji777777p        @777777777dffg",
"      rjjt               +jjjjjjjjj@        <jjjjjjjjjh   ",
"      rjjt               +jjjjjjjjj@        <jjjjjjjjjh   ",
"      rjjt               +jjjjjjjjj@        <jjjjjjjjjh   "
};
