/* XPM */
static char *mouse_cursor_xpm[] = {

"19 19 7 1 ",
"  c None",
". c #808080",
"X c #8E8E8E",
"o c #979899",
"O c #A9AAAB",
"+ c #B0B1B2",
"@ c #D6D7D8",

".X+OOOO            ",
"X@+@@@@+OO         ",
"++@+++@@@@+        ",
"O@+.+@@@@@@+O      ",
"O@++@++@@@@@@+     ",
"O@+@+..+@@@@@@+    ",
"O@@@+..+@@...@@+   ",
" +@@@++@@.++..@@+  ",
" O@@@@@@.+@.@@@@@+ ",
" O@@@@@.+.@+..@@@@O",
"  +@@@.+@@+.@@X@@@O",
"   +@@.+.+.@++@X@@O",
"   O@@..@.@+..+@X@O",
"    +@@.@.@+..+@X@O",
"     +@@@@X@++@X@+ ",
"      +@@@@X@@X@+  ",
"       +@@@@XX@+o  ",
"        +@@@@@+    ",
"         OOOOO     "};
