/* XPM */
static char *hit_xpm[] = {

"80 80 229 2 ",
"   c None",
".  c #030303",
"X  c #222222",
"o  c #3C3C3C",
"O  c #575757",
"+  c #727272",
"@  c #8E8E8E",
"#  c #A9A9A9",
"$  c #B7B7B7",
"%  c #C5C5C5",
"&  c #D3D3D3",
"*  c #E1E1E1",
"=  c #EFEFEF",
"-  c #FDFDFD",
";  c #FFFFFF",
":  c #FCFCFC",
">  c #E2E2E2",
",  c #D5D5D5",
"<  c #C8C8C8",
"1  c #BBBBBB",
"2  c #ADADAD",
"3  c #909090",
"4  c #737373",
"5  c #3A3A3A",
"6  c #1E1E1E",
"7  c #010101",
"8  c #2A2A2A",
"9  c #2B2B2B",
"0  c #2C2C2C",
"q  c #2E2E2E",
"w  c #2F2F2F",
"e  c #313131",
"r  c #323232",
"t  c #333333",
"y  c #363636",
"u  c #484848",
"i  c #5A5A5A",
"p  c #6B6B6B",
"a  c #7C7C7C",
"s  c #8D8D8D",
"d  c #9F9F9F",
"f  c #A8A8A8",
"g  c #B1B1B1",
"h  c #BEBEBE",
"j  c #C3C3C3",
"k  c #CCCCCC",
"l  c #D5D5D5",
"z  c #CBCBCB",
"x  c #B2B2B2",
"c  c #ACACAC",
"v  c #A1A1A1",
"b  c #8F8F8F",
"n  c #7D7D7D",
"m  c #6A6A6A",
"M  c #585858",
"N  c #464646",
"B  c #343434",
"V  c #4C4C4C",
"C  c #555555",
"Z  c #565656",
"A  c #5C5C5C",
"S  c #5F5F5F",
"D  c #606060",
"F  c #646464",
"G  c #676767",
"H  c #6F6F6F",
"J  c #777777",
"K  c #7E7E7E",
"L  c #868686",
"P  c #959595",
"I  c #989898",
"U  c #9B9B9B",
"Y  c #9D9D9D",
"T  c #A0A0A0",
"R  c #A4A4A4",
"E  c #ACACAC",
"W  c #9D9D9D",
"Q  c #9A9A9A",
"!  c #8F8F8F",
"~  c #767676",
"^  c #6E6E6E",
"/  c #626262",
"(  c #606060",
")  c #5D5D5D",
"_  c #5B5B5B",
"`  c #7D7D7D",
"'  c #818181",
"]  c #868686",
"[  c #888888",
"{  c #929292",
"}  c #999999",
"|  c #949494",
" . c #8B8B8B",
".. c #898989",
"X. c #888888",
"o. c #868686",
"O. c #848484",
"+. c #838383",
"@. c #979797",
"#. c #939393",
"$. c #8F8F8F",
"%. c #AAAAAA",
"&. c #B2B2B2",
"*. c #B6B6B6",
"=. c #BEBEBE",
"-. c #CACACA",
";. c #A5A5A5",
":. c #A1A1A1",
">. c #747474",
",. c #6D6D6D",
"<. c #5A5A5A",
"1. c #7B7B7B",
"2. c #BABABA",
"3. c #C6C6C6",
"4. c #B6B6B6",
"5. c #C1C1C1",
"6. c #D4D4D4",
"7. c #D7D7D7",
"8. c #DFDFDF",
"9. c #E4E4E4",
"0. c #ECECEC",
"q. c #F3F3F3",
"w. c #FCFCFC",
"e. c #FBFBFB",
"r. c #CECECE",
"t. c #A2A2A2",
"y. c #787878",
"u. c #5C5C5C",
"i. c #535353",
"p. c #686868",
"a. c #B9B9B9",
"s. c #D0D0D0",
"d. c #E7E7E7",
"f. c #FEFEFE",
"g. c #F6F6F6",
"h. c #E9E9E9",
"j. c #E4E4E4",
"k. c #DCDCDC",
"l. c #E3E3E3",
"z. c #BEBEBE",
"x. c #9E9E9E",
"c. c #6B6B6B",
"v. c #4C4C4C",
"b. c #404040",
"n. c #282828",
"m. c #262626",
"M. c #2E2E2E",
"N. c #3F3F3F",
"B. c #4B4B4B",
"V. c #C7C7C7",
"C. c #E6E6E6",
"Z. c #7D7D7D",
"A. c #515151",
"S. c #444444",
"D. c #373737",
"F. c #1D1D1D",
"G. c #202020",
"H. c #393939",
"J. c #434343",
"K. c #4E4E4E",
"L. c #808080",
"P. c #AFAFAF",
"I. c #5A5A5A",
"U. c #222222",
"Y. c #151515",
"T. c #131313",
"R. c #161616",
"E. c #1E1E1E",
"W. c #474747",
"Q. c #7B7B7B",
"!. c #CACACA",
"~. c #E1E1E1",
"^. c #C6C6C6",
"/. c #929292",
"(. c #5C5C5C",
"). c #505050",
"_. c #424242",
"`. c #272727",
"'. c #191919",
"]. c #0B0B0B",
"[. c #050505",
"{. c #060606",
"}. c #474747",
"|. c #C8C8C8",
" X c #DFDFDF",
".X c #494949",
"XX c #2D2D2D",
"oX c #101010",
"OX c #020202",
"+X c #040404",
"@X c #111111",
"#X c #4E4E4E",
"$X c #CDCDCD",
"%X c #DADADA",
"&X c #E9E9E9",
"*X c #3E3E3E",
"=X c #252525",
"-X c #181818",
";X c #0C0C0C",
":X c #292929",
">X c #D1D1D1",
",X c #EAEAEA",
"<X c #D2D2D2",
"1X c #BCBCBC",
"2X c #BABABA",
"3X c #6C6C6C",
"4X c #414141",
"5X c #0E0E0E",
"6X c #353535",
"7X c #C1C1C1",
"8X c #C0C0C0",
"9X c #1F1F1F",
"0X c #797979",
"qX c #AEAEAE",
"wX c #A1A1A1",
"eX c #656565",
"rX c #393939",
"tX c #4F4F4F",
"yX c #4D4D4D",
"uX c #696969",
"iX c #5F5F5F",
"pX c #A7A7A7",
"aX c #9B9B9B",
"sX c #717171",
"dX c #2A2A2A",
"fX c #1B1B1B",
"gX c #1C1C1C",
"hX c #232323",
"jX c #A1A1A1",

"                          . X o O + @ # $ % & * = - ; ; ; ; ; ; ; ; ; ; ; ; ; ; ; ; ; ; ; ; ; ; ; ; : = > , < 1 2 3 4 O 5 6 7                                   ",
"                          . X o O + @ # $ % & * = - ; ; ; ; ; ; ; ; ; ; ; ; ; ; ; ; ; ; ; ; ; ; ; ; : = > , < 1 2 3 4 O 5 6 7                                   ",
"                          . X o O + @ # $ % & * = - ; ; ; ; ; ; ; ; ; ; ; ; ; ; ; ; ; ; ; ; ; ; ; ; : = > , < 1 2 3 4 O 5 6 7                                   ",
"                          . X o O + @ # $ % & * = - ; ; ; ; ; ; ; ; ; ; ; ; ; ; ; ; ; ; ; ; ; ; ; ; : = > , < 1 2 3 4 O 5 6 7                                   ",
"                          . X o O + @ # $ % & * = - ; ; ; ; ; ; ; ; ; ; ; ; ; ; ; ; ; ; ; ; ; ; ; ; : = > , < 1 2 3 4 O 5 6 7                                   ",
"                          . X o O + @ # $ % & * = - ; ; ; ; ; ; ; ; ; ; ; ; ; ; ; ; ; ; ; ; ; ; ; ; : = > , < 1 2 3 4 O 5 6 7                                   ",
"                          . X o O + @ # $ % & * = - ; ; ; ; ; ; ; ; ; ; ; ; ; ; ; ; ; ; ; ; ; ; ; ; : = > , < 1 2 3 4 O 5 6 7                                   ",
"                          . X o O + @ # $ % & * = - ; ; ; ; ; ; ; ; ; ; ; ; ; ; ; ; ; ; ; ; ; ; ; ; : = > , < 1 2 3 4 O 5 6 7                                   ",
"                          . X o O + @ # $ % & * = - ; ; ; ; ; ; ; ; ; ; ; ; ; ; ; ; ; ; ; ; ; ; ; ; : = > , < 1 2 3 4 O 5 6 7                                   ",
"                          . X o O + @ # $ % & * = - ; ; ; ; ; ; ; ; ; ; ; ; ; ; ; ; ; ; ; ; ; ; ; ; : = > , < 1 2 3 4 O 5 6 7                                   ",
"                          . X o O + @ # $ % & * = - ; ; ; ; ; ; ; ; ; ; ; ; ; ; ; ; ; ; ; ; ; ; ; ; : = > , < 1 2 3 4 O 5 6 7                                   ",
"                          . X o O + @ # $ % & * = - ; ; ; ; ; ; ; ; ; ; ; ; ; ; ; ; ; ; ; ; ; ; ; ; : = > , < 1 2 3 4 O 5 6 7                                   ",
"                          . X o O + @ # $ % & * = - ; ; ; ; ; ; ; ; ; ; ; ; ; ; ; ; ; ; ; ; ; ; ; ; : = > , < 1 2 3 4 O 5 6 7                                   ",
"8 9 0 q w e r t t t t t t y u i p a s d f g h j k , l l l l l l l l l l l l l l l l l l l l l l l l & z j 1 x c v b n m M N B t t t t t t r e V w q 0 0 0 0     ",
"C Z i A S D F G G G G G G H J K L P s I U Y T R f E E E E E E E E E E E E E E E E E E E E E E E E E c f R v W Q ! @ P L ~ ^ G G G G G G G F / ( ) _ i M M M     ",
"` ' ] [ @ { ! } } } } } } } ! | { b s  ...X.o.] O.+.+.+.+.+.+.+.+.+.+.+.+.+.+.+.+.+.+.+.+.+.+.+.+.+.+.O.P o.X...[ s b { | @.} } } } } } } ! #.b $...] O.O.O.    ",
"%.E &.*.=.j < k k k k k k -.=.g ;.} s ' :.>.,.H D <.i i i i i i i i i i i i i i i i i i i i i i i i _ D H ,.4 1.` $.} ;.&.2.k k k k k k k < 3.2.1 4.&.5.5.5.    ",
"6.7.8.9.0.q.w.; ; ; ; ; ; e.9.r.*.t.$.K p S y.u u.e V V V V V V V V V V V V V V V V V V V V V V V V t u.u i.) p.>. .t.a.s.d.f.; ; ; ; ; ; w.g.= h.j.8.k.k.k.    ",
"6.7.8.9.0.q.w.; ; ; ; ; ; e.l.k z.x.o.c.F M v.b.B n.m.m.m.m.m.m.m.m.m.m.m.m.m.m.m.m.m.m.m.m.m.m.m.m.M.B N.B.Z D ,.] W 4.V.C.f.; ; ; ; ; ; w.g.= h.j.8.k.k.k.    ",
"6.7.8.9.0.q.w.; ; ; ; ; ; w.> -.&.Q Z.m ) A.S.D.9 6 F.F.F.F.F.F.F.F.F.F.F.F.F.F.F.F.F.F.F.F.F.F.F.F.G.9 H.J.K.<.H L.} &.k 9.f.; ; ; ; ; ; w.g.= h.j.8.k.k.k.    ",
"6.7.8.9.0.q.w.; ; ; ; ; ; w.* < P.! n F O I.o w U.Y.T.T.T.T.T.T.T.T.T.T.T.T.T.T.T.T.T.T.T.T.T.T.T.T.R.U.q E.W.i.( Q.I P.!.j.f.; ; ; ; ; ; w.g.= h.j.8.k.k.k.    ",
"6.7.8.9.0.q.w.; ; ; ; ; ; w.~.^.E /.K (.)._.B `.'.].[.[.[.[.[.[.[.[.[.[.[.[.[.[.[.[.[.[.[.[.[.[.[.[.{.'.m.t N.v.<.}.3 E |.l.f.; ; ; ; ; ; w.g.= h.j.8.k.k.k.    ",
"6.7.8.9.0.q.w.; ; ; ; ; ; w. X3.f s + O .XE.XX6 oXOX                                                +X@X6 9 D.#Xi.c.$.# % * f.; ; ; ; ; ; w.g.= h.j.8.k.k.k.    ",
"6.7.8.9.0.q.w.; ; ; ; ; ; w. X3.f s + O .XE.XX6 oXOX                                                +X@X6 9 D.#Xi.c.$.# % * f.; ; ; ; ; ; w.g.= h.j.8.k.k.k.    ",
"6.7.8.9.0.q.w.; ; ; ; ; ; w. X3.f s + O .XE.XX6 oXOX                                                +X@X6 9 D.#Xi.c.$.# % * f.; ; ; ; ; ; w.g.= h.j.8.k.k.k.    ",
"6.7.8.9.0.q.w.; ; ; ; ; ; w. X3.f s + O .XE.XX6 oXOX                                                +X@X6 9 D.#Xi.c.$.# % * f.; ; ; ; ; ; w.g.= h.j.8.k.k.k.    ",
"6.7.8.9.0.q.w.; ; ; ; ; ; w. X3.f s + O .XE.XX6 oXOX                                                +X@X6 9 D.#Xi.c.$.# % * f.; ; ; ; ; ; w.g.= h.j.8.k.k.k.    ",
"6.7.8.9.0.q.w.; ; ; ; ; ; w. X3.f s + O .XE.XX6 oXOX                                                +X@X6 9 D.#Xi.c.$.# % * f.; ; ; ; ; ; w.g.= h.j.8.k.k.k.    ",
"6.7.8.9.0.q.w.; ; ; ; ; ; w. X3.f s + O .XE.XX6 oXOX                                                +X@X6 9 D.#Xi.c.$.# % * f.; ; ; ; ; ; w.g.= h.j.8.k.k.k.    ",
"6.7.8.9.0.q.w.; ; ; ; ; ; w. X3.f s + O .XE.XX6 oXOX                                                +X@X6 9 D.#Xi.c.$.# % * f.; ; ; ; ; ; w.g.= h.j.8.k.k.k.    ",
"6.7.8.9.0.q.w.; ; ; ; ; ; w. X3.f s + O .XE.XX6 oXOX                                                +X@X6 9 D.#Xi.c.$.# % * f.; ; ; ; ; ; w.g.= h.j.8.k.k.k.    ",
"6.7.8.9.0.q.w.; ; ; ; ; ; w. X3.f s + O .XE.XX6 oXOX                                                +X@X6 9 D.#Xi.c.$.# % * f.; ; ; ; ; ; w.g.= h.j.8.k.k.k.    ",
"6.7.8.9.0.q.w.; ; ; ; ; ; w. X3.f s + O .XE.XX6 oXOX                                                +X@X6 9 D.#Xi.c.$.# % * f.; ; ; ; ; ; w.g.= h.j.8.k.k.k.    ",
"6.7.8.9.0.q.w.; ; ; ; ; ; w. X3.f s + O .XE.XX6 oXOX                                                +X@X6 9 D.#Xi.c.$.# % * f.; ; ; ; ; ; w.g.= h.j.8.k.k.k.    ",
"6.7.8.9.0.q.w.; ; ; ; ; ; w. X3.f s + O .XE.XX6 oXOX                                                +X@X6 9 D.#Xi.c.$.# % * f.; ; ; ; ; ; w.g.= h.j.8.k.k.k.    ",
"6.7.8.9.0.q.w.; ; ; ; ; ; w. X3.f s + O .XE.XX6 oXOX                                                +X@X6 9 D.#Xi.c.$.# % * f.; ; ; ; ; ; w.g.= h.j.8.k.k.k.    ",
"6.7.8.9.0.q.w.; ; ; ; ; ; w. X3.f s + O .XE.XX6 oXOX                                                +X@X6 9 D.#Xi.c.$.# % * f.; ; ; ; ; ; w.g.= h.j.8.k.k.k.    ",
"6.7.8.9.0.q.w.; ; ; ; ; ; w. X3.f s + O .XE.XX6 oXOX                                                +X@X6 9 D.#Xi.c.$.# % * f.; ; ; ; ; ; w.g.= h.j.8.k.k.k.    ",
"6.7.8.9.0.q.w.; ; ; ; ; ; w. X3.f s + O .XE.XX6 oXOX                                                +X@X6 9 D.#Xi.c.$.# % * f.; ; ; ; ; ; w.g.= h.j.8.k.k.k.    ",
"6.7.8.9.0.q.w.; ; ; ; ; ; w. X3.f s + O .XE.XX6 oXOX                                                +X@X6 9 D.#Xi.c.$.# % * f.; ; ; ; ; ; w.g.= h.j.8.k.k.k.    ",
"6.7.8.9.0.q.w.; ; ; ; ; ; w. X3.f s + O .XE.XX6 oXOX                                                +X@X6 9 D.#Xi.c.$.# % * f.; ; ; ; ; ; w.g.= h.j.8.k.k.k.    ",
"6.7.8.9.0.q.w.; ; ; ; ; ; w. X3.f s + O .XE.XX6 oXOX                                                +X@X6 9 D.#Xi.c.$.# % * f.; ; ; ; ; ; w.g.= h.j.8.k.k.k.    ",
"6.7.8.9.0.q.w.; ; ; ; ; ; w. X3.f s + O .XE.XX6 oXOX                                                +X@X6 9 D.#Xi.c.$.# % * f.; ; ; ; ; ; w.g.= h.j.8.k.k.k.    ",
"6.7.8.9.0.q.w.; ; ; ; ; ; w. X3.f s + O .XE.XX6 oXOX                                                +X@X6 9 D.#Xi.c.$.# % * f.; ; ; ; ; ; w.g.= h.j.8.k.k.k.    ",
"6.7.8.9.0.q.w.; ; ; ; ; ; w. X3.f s + O .XE.XX6 oXOX                                                +X@X6 9 D.#Xi.c.$.# % * f.; ; ; ; ; ; w.g.= h.j.8.k.k.k.    ",
"6.7.8.9.0.q.w.; ; ; ; ; ; w. X3.f s + O .XE.XX6 oXOX                                                +X@X6 9 D.#Xi.c.$.# % * f.; ; ; ; ; ; w.g.= h.j.8.k.k.k.    ",
"6.7.8.9.0.q.w.; ; ; ; ; ; w. X3.f s + O .XE.XX6 oXOX                                                +X@X6 9 D.#Xi.c.$.# % * f.; ; ; ; ; ; w.g.= h.j.8.k.k.k.    ",
"6.7.8.9.0.q.w.; ; ; ; ; ; w. X3.f s + O .XE.XX6 oXOX                                                +X@X6 9 D.#Xi.c.$.# % * f.; ; ; ; ; ; w.g.= h.j.8.k.k.k.    ",
"6.7.8.9.0.q.w.; ; ; ; ; ; w. X3.f s + O .XE.XX6 oXOX                                                +X@X6 9 D.#Xi.c.$.# % * f.; ; ; ; ; ; w.g.= h.j.8.k.k.k.    ",
"6.7.8.9.0.q.w.; ; ; ; ; ; w. X3.f s + O .XE.XX6 oXOX                                                +X@X6 9 D.#Xi.c.$.# % * f.; ; ; ; ; ; w.g.= h.j.8.k.k.k.    ",
"6.7.8.9.0.q.w.; ; ; ; ; ; w. X3.f s + O .XE.XX6 oXOX                                                +X@X6 9 D.#Xi.c.$.# % * f.; ; ; ; ; ; w.g.= h.j.8.k.k.k.    ",
"6.7.8.9.0.q.w.; ; ; ; ; ; w. X3.f s + O .XE.XX6 oXOX                                                +X@X6 9 D.#Xi.c.$.# % * f.; ; ; ; ; ; w.g.= h.j.8.k.k.k.    ",
"6.7.8.9.0.q.w.; ; ; ; ; ; w. X3.f s + O .XE.XX6 oXOX                                                +X@X6 9 D.#Xi.c.$.# % * f.; ; ; ; ; ; w.g.= h.j.8.k.k.k.    ",
"6.7.8.9.0.q.w.; ; ; ; ; ; w. X3.f s + O .XE.XX6 oXOX                                                +X@X6 9 D.#Xi.c.$.# % * f.; ; ; ; ; ; w.g.= h.j.8.k.k.k.    ",
"6.7.8.9.0.q.w.; ; ; ; ; ; w. X3.f s + O .XE.XX6 oXOX                                                +X@X6 9 D.#Xi.c.$.# % * f.; ; ; ; ; ; w.g.= h.j.8.k.k.k.    ",
"6.7.8.9.0.q.w.; ; ; ; ; ; w. X3.f s + O .XE.XX6 oXOX                                                +X@X6 9 D.#Xi.c.$.# % * f.; ; ; ; ; ; w.g.= h.j.8.k.k.k.    ",
"6.7.8.9.0.q.w.; ; ; ; ; ; w. X3.f s + O .XE.XX6 oXOX                                                +X@X6 9 D.#Xi.c.$.# % * f.; ; ; ; ; ; w.g.= h.j.8.k.k.k.    ",
"6.7.8.9.0.q.w.; ; ; ; ; ; w. X3.f s + O .XE.XX6 oXOX                                                +X@X6 9 D.#Xi.c.$.# % * f.; ; ; ; ; ; w.g.= h.j.8.k.k.k.    ",
"j |.$X6.%X* d.&X&X&X&X&X&Xd.r.$ d o.J O B.*Xr =X-X;X[.[.[.[.[.[.[.[.[.[.[.[.[.[.[.[.[.[.[.[.[.[.[.[.{.'.:XV E.W.y.,.P d *.>X,X&X&X&X&X&X&Xd.> k.7.<X$Xz z z     ",
"x 4.1X2X< V.6.7.7.7.7.7.7.& 2.%.I L.3XO v.4XH.0 X R.Y.Y.Y.Y.Y.Y.Y.Y.Y.Y.Y.Y.Y.Y.Y.Y.Y.Y.Y.Y.Y.Y.Y.Y.5XX 9 6XN..Xy.m L.I c 7X7.7.7.7.7.7.7.& r.-.% 8X1 h h h     ",
"t.;.%.5.z.1 8X3.3.3.3.3.3.8XP.W  .:.p.O K.#Xo t M.G.9X9X9X9X9X9X9X9X9X9X9X9X9X9X9X9X9X9X9X9X9X9X9X9XX 8 r 5 J.B.C H 0X$.x.5.j 3.3.3.3.3.3.8X1X$ x qX%.f f f     ",
"{ | } x.wXf 2 5.5.5.5.5.5.2 d 3 Z.4 eXO ).u 4XrXr 8 8 8 8 8 8 8 8 8 8 8 8 8 8 8 8 8 8 8 8 8 8 8 8 8 9 r rXb.N tXC F 4 Z./.T P.5.5.5.5.5.5.2 # ;.v W } @.@.@.    ",
"' +.X.$.3 I } Y Y Y Y Y Y Q b +.1.,./ O A.B.N b.5 6XB B B B B B B B B B B B B B B B B B B B B B B B 6XE.b.#XI.yXC D ,.1.O.3 Y Y Y Y Y Y Y } ! { @  .o.P P P     ",
"H uX3Xc.4 K Q.n n n n n n a 0X}.+ ^ p H eXF / ( S ) ) ) ) ) ) ) ) ) ) ) ) ) ) ) ) ) ) ) ) ) ) ) ) ) ) S ( / iXeXH m ^ + }.0Xn n n n n n n :.1.}.+ J 3Xp p p     ",
"tXyXA.y.O i A (.(.(.(.(.(.(.iXH p J 4 K :.a L L.+.] ] ] ] ] ] ] ] ] ] ] ] ] ] ] ] ] ] ] ] ] ] ] ] ] ] +.' ` n Q.1.>.J p H / (.(.(.(.(.(.(.A <.M C i.A.).).).    ",
"B B y D.5 E.u.*X*X*X*X*X*X4XtXM F c.a X.@ | Q v pX2 qXqXqXqXqXqXqXqXqXqXqXqXqXqXqXqXqXqXqXqXqXqXqXqXE pXv aX! 3 [ n sXF M B.N.*X*X*X*X*X*Xu.o 5 rXD.y y y y     ",
"dXdXfXgXF.6 9X9X9X9X9X9X9XhXH.I.(.sX] U t.2 $ 7Xz , l l l l l l l l l l l l l l l l l l l l l l l l 6.z 7X*.P.jXaXo.+ (..X6XG.9X9X9X9X9X9X9X6 F.gXgXfXfXfXfX    ",
"                          . X o O + @ # $ % & * = - ; ; ; ; ; ; ; ; ; ; ; ; ; ; ; ; ; ; ; ; ; ; ; ; : = > , < 1 2 3 4 O 5 6 7                                   ",
"                          . X o O + @ # $ % & * = - ; ; ; ; ; ; ; ; ; ; ; ; ; ; ; ; ; ; ; ; ; ; ; ; : = > , < 1 2 3 4 O 5 6 7                                   ",
"                          . X o O + @ # $ % & * = - ; ; ; ; ; ; ; ; ; ; ; ; ; ; ; ; ; ; ; ; ; ; ; ; : = > , < 1 2 3 4 O 5 6 7                                   ",
"                          . X o O + @ # $ % & * = - ; ; ; ; ; ; ; ; ; ; ; ; ; ; ; ; ; ; ; ; ; ; ; ; : = > , < 1 2 3 4 O 5 6 7                                   ",
"                          . X o O + @ # $ % & * = - ; ; ; ; ; ; ; ; ; ; ; ; ; ; ; ; ; ; ; ; ; ; ; ; : = > , < 1 2 3 4 O 5 6 7                                   ",
"                          . X o O + @ # $ % & * = - ; ; ; ; ; ; ; ; ; ; ; ; ; ; ; ; ; ; ; ; ; ; ; ; : = > , < 1 2 3 4 O 5 6 7                                   ",
"                          . X o O + @ # $ % & * = - ; ; ; ; ; ; ; ; ; ; ; ; ; ; ; ; ; ; ; ; ; ; ; ; : = > , < 1 2 3 4 O 5 6 7                                   ",
"                          . X o O + @ # $ % & * = - ; ; ; ; ; ; ; ; ; ; ; ; ; ; ; ; ; ; ; ; ; ; ; ; : = > , < 1 2 3 4 O 5 6 7                                   ",
"                          . X o O + @ # $ % & * = - ; ; ; ; ; ; ; ; ; ; ; ; ; ; ; ; ; ; ; ; ; ; ; ; : = > , < 1 2 3 4 O 5 6 7                                   ",
"                          . X o O + @ # $ % & * = - ; ; ; ; ; ; ; ; ; ; ; ; ; ; ; ; ; ; ; ; ; ; ; ; : = > , < 1 2 3 4 O 5 6 7                                   ",
"                          . X o O + @ # $ % & * = - ; ; ; ; ; ; ; ; ; ; ; ; ; ; ; ; ; ; ; ; ; ; ; ; : = > , < 1 2 3 4 O 5 6 7                                   ",
"                          . X o O + @ # $ % & * = - ; ; ; ; ; ; ; ; ; ; ; ; ; ; ; ; ; ; ; ; ; ; ; ; : = > , < 1 2 3 4 O 5 6 7                                   ",
"                          . X o O + @ # $ % & * = - ; ; ; ; ; ; ; ; ; ; ; ; ; ; ; ; ; ; ; ; ; ; ; ; : = > , < 1 2 3 4 O 5 6 7                                   "
};
