/* XPM */
static char *miss_xpm[] = {

"80 80 245 2 ",
"   c #D40000",
".  c #DD0000",
"X  c #E50000",
"o  c #EE0000",
"O  c #F60000",
"+  c #FF0000",
"@  c #DE0000",
"#  c #BC0000",
"$  c #9B0000",
"%  c #790000",
"&  c #580000",
"*  c #460000",
"=  c #350000",
"-  c #230000",
";  c #120000",
":  c None",
">  c #070000",
",  c #0E0000",
"<  c #160000",
"1  c #1D0000",
"2  c #240000",
"3  c #500000",
"4  c #7C0000",
"5  c #A70000",
"6  c #D30000",
"7  c #CE0000",
"8  c #9E0000",
"9  c #B10000",
"0  c #B90000",
"q  c #C00000",
"w  c #C70000",
"e  c #D60000",
"r  c #AB0000",
"t  c #960000",
"y  c #800000",
"u  c #6B0000",
"i  c #600000",
"p  c #550000",
"a  c #490000",
"s  c #3E0000",
"d  c #330000",
"f  c #2E0000",
"g  c #290000",
"h  c #1F0000",
"j  c #1A0000",
"k  c #150000",
"l  c #100000",
"z  c #0B0000",
"x  c #050000",
"c  c #030000",
"v  c #060000",
"b  c #0A0000",
"n  c #0D0000",
"m  c #170000",
"M  c #1E0000",
"N  c #250000",
"B  c #2C0000",
"V  c #380000",
"C  c #3C0000",
"Z  c #410000",
"A  c #450000",
"S  c #4A0000",
"D  c #660000",
"F  c #820000",
"G  c #BA0000",
"H  c #AD0000",
"J  c #840000",
"K  c #8F0000",
"L  c #950000",
"P  c #A00000",
"I  c #A60000",
"U  c #AC0000",
"Y  c #A30000",
"T  c #9A0000",
"R  c #910000",
"E  c #880000",
"W  c #7E0000",
"Q  c #7A0000",
"!  c #750000",
"~  c #700000",
"^  c #5C0000",
"/  c #520000",
"(  c #480000",
")  c #3F0000",
"_  c #2A0000",
"`  c #200000",
"'  c #130000",
"]  c #680000",
"[  c #6A0000",
"{  c #6C0000",
"}  c #6E0000",
"|  c #940000",
" . c #8B0000",
".. c #710000",
"X. c #830000",
"o. c #860000",
"O. c #890000",
"+. c #8C0000",
"@. c #920000",
"#. c #930000",
"$. c #980000",
"%. c #990000",
"&. c #8A0000",
"*. c #7B0000",
"=. c #6D0000",
"-. c #5E0000",
";. c #4F0000",
":. c #300000",
">. c #260000",
",. c #5A0000",
"<. c #6F0000",
"1. c #970000",
"2. c #8E0000",
"3. c #870000",
"4. c #510000",
"5. c #4D0000",
"6. c #530000",
"7. c #560000",
"8. c #590000",
"9. c #780000",
"0. c #A50000",
"q. c #B40000",
"w. c #C40000",
"e. c #CC0000",
"r. c #B80000",
"t. c #7D0000",
"y. c #540000",
"u. c #400000",
"i. c #B00000",
"p. c #C90000",
"a. c #C60000",
"s. c #C20000",
"d. c #BF0000",
"f. c #A80000",
"g. c #810000",
"h. c #370000",
"j. c #270000",
"k. c #2B0000",
"l. c #4B0000",
"z. c #9D0000",
"x. c #E30000",
"c. c #F10000",
"v. c #E60000",
"b. c #B50000",
"n. c #730000",
"m. c #DC0000",
"M. c #F90000",
"N. c #F30000",
"B. c #E80000",
"V. c #E20000",
"C. c #BE0000",
"Z. c #770000",
"A. c #210000",
"S. c #220000",
"D. c #430000",
"F. c #5F0000",
"G. c #D20000",
"H. c #E10000",
"J. c #F00000",
"K. c #ED0000",
"L. c #E70000",
"P. c #4C0000",
"I. c #180000",
"U. c #1B0000",
"Y. c #1C0000",
"T. c #3B0000",
"R. c #760000",
"E. c #B20000",
"W. c #C10000",
"Q. c #D10000",
"!. c #E00000",
"~. c #F20000",
"^. c #EC0000",
"/. c #440000",
"(. c #110000",
"). c #320000",
"_. c #AE0000",
"`. c #CF0000",
"'. c #DF0000",
"]. c #EF0000",
"[. c #F80000",
"{. c #EB0000",
"}. c #B60000",
"|. c #8D0000",
" X c #640000",
".X c #0C0000",
"XX c #080000",
"oX c #090000",
"OX c #CD0000",
"+X c #E40000",
"@X c #B30000",
"#X c #340000",
"$X c #650000",
"%X c #CB0000",
"&X c #EA0000",
"*X c #360000",
"=X c #A20000",
"-X c #BD0000",
";X c #AF0000",
":X c #630000",
">X c #3D0000",
",X c #B70000",
"<X c #BB0000",
"1X c #140000",
"2X c #280000",
"3X c #690000",
"4X c #7F0000",
"5X c #900000",
"6X c #740000",
"7X c #5B0000",
"8X c #420000",
"9X c #C30000",
"0X c #720000",
"qX c #5D0000",
"wX c #2F0000",
"eX c #2D0000",
"rX c #190000",
"tX c #D00000",
"yX c #010000",
"uX c #040000",
"iX c #CA0000",
"pX c #A40000",
"aX c #020000",
"sX c #0F0000",
"dX c #470000",
"fX c #850000",
"gX c #570000",
"hX c #310000",
"jX c #4E0000",
"kX c #390000",
"lX c #3A0000",
"zX c #610000",
"xX c #9F0000",
"cX c #A90000",
"vX c #9C0000",
"bX c #AA0000",
"nX c #C80000",
"mX c #C50000",
"MX c #670000",
"NX c #D50000",
"BX c #F50000",
"VX c #DB0000",
"CX c #A10000",
"ZX c #D90000",
"AX c #620000",

"      . X o O + + + + + + @ # $ % & * = - ; : : : : : : : : : : : : : : : : : : : : : : : : : : : : : : : : : : : : > , < 1 2 3 4 5 6 + + + + + + + + + + + 7 8 ",
"      . X o O + + + + + + @ # $ % & * = - ; : : : : : : : : : : : : : : : : : : : : : : : : : : : : : : : : : : : : > , < 1 2 3 4 5 6 + + + + + + + + + + + 7 8 ",
"      . X o O + + + + + + @ # $ % & * = - ; : : : : : : : : : : : : : : : : : : : : : : : : : : : : : : : : : : : : > , < 1 2 3 4 5 6 + + + + + + + + + + + 7 8 ",
"      . X o O + + + + + + @ # $ % & * = - ; : : : : : : : : : : : : : : : : : : : : : : : : : : : : : : : : : : : : > , < 1 2 3 4 5 6 + + + + + + + + + + + 7 8 ",
"      . X o O + + + + + + @ # $ % & * = - ; : : : : : : : : : : : : : : : : : : : : : : : : : : : : : : : : : : : : > , < 1 2 3 4 5 6 + + + + + + + + + + + 7 8 ",
"      . X o O + + + + + + @ # $ % & * = - ; : : : : : : : : : : : : : : : : : : : : : : : : : : : : : : : : : : : : > , < 1 2 3 4 5 6 + + + + + + + + + + + 7 8 ",
"      . X o O + + + + + + @ # $ % & * = - ; : : : : : : : : : : : : : : : : : : : : : : : : : : : : : : : : : : : : > , < 1 2 3 4 5 6 + + + + + + + + + + + 7 8 ",
"      . X o O + + + + + + @ # $ % & * = - ; : : : : : : : : : : : : : : : : : : : : : : : : : : : : : : : : : : : : > , < 1 2 3 4 5 6 + + + + + + + + + + + 7 8 ",
"      . X o O + + + + + + @ # $ % & * = - ; : : : : : : : : : : : : : : : : : : : : : : : : : : : : : : : : : : : : > , < 1 2 3 4 5 6 + + + + + + + + + + + 7 8 ",
"      . X o O + + + + + + @ # $ % & * = - ; : : : : : : : : : : : : : : : : : : : : : : : : : : : : : : : : : : : : > , < 1 2 3 4 5 6 + + + + + + + + + + + 7 8 ",
"      . X o O + + + + + + @ # $ % & * = - ; : : : : : : : : : : : : : : : : : : : : : : : : : : : : : : : : : : : : > , < 1 2 3 4 5 6 + + + + + + + + + + + 7 8 ",
"      . X o O + + + + + + @ # $ % & * = - ; : : : : : : : : : : : : : : : : : : : : : : : : : : : : : : : : : : : : > , < 1 2 3 4 5 6 + + + + + + + + + + + 7 8 ",
"      . X o O + + + + + + @ # $ % & * = - ; : : : : : : : : : : : : : : : : : : : : : : : : : : : : : : : : : : : : > , < 1 2 3 4 5 6 + + + + + + + + + + + 7 8 ",
"9 9 9 0 q w 7 e e e e e e q r t y u i p a s d d d d d d f g 2 h j k l z x : : : : : : c v b n l m M N B d d d d d d V C Z A S D F 8 G e e e e e e e e e e e H J ",
"K K K L $ P I U U U U U U Y T R E W Q ! ~ u D D D D D D ^ / ( ) = _ ` k z : : : : : : v n ' j ` f C S & D D D D D D ] [ { } ~ 4 E | P U U U U U U U U U U U  .u ",
"{ { { ..! Q W X.X.X.X.X.X.o.O.+.K @.#.L t $.%.%.%.%.%.%.&.*.=.-.;.) :.` l : : : : : : b ' 1 >.:.A ,.<.J %.%.%.%.%.%.$.$.1.1.t @.2.&.3.X.X.X.X.X.X.X.X.X.X.X.[ 4.",
"S S S 5.3 6.7.8.8.8.8.8.8.] 9.3.t 0.H q.# w.e.e.e.e.e.e.r.0.R t.[ y.) _ k : : : : : : n j >.d u.^ 9.| i.e.e.e.e.e.e.p.a.s.d.# f.L g.=.8.8.8.8.8.8.8.8.8.8.8.( h.",
"j.j.j.g k.B f :.:.:.:.:.:.l.D F z.r.a.  x.c.+ + + + + + v.7 b.z.J [ ;.= j : : : : : : l ` :.u.3 n.t 0 m.+ + + + + + M.N.o B.V.C.$ Z.y.:.:.:.:.:.:.:.:.:.:.:.j.M ",
"h h h A.S.2 N >.>.>.>.>.>.D.F.4 $.b.w.G.H.J.+ + + + + + v.7 b.z.J [ ;.= j : : : : : : l ` :.u.3 n.t 0 m.+ + + + + + M.N.K.L.H.# t ..P.>.>.>.>.>.>.>.>.>.>.>.h I.",
"m m m I.j U.Y.1 1 1 1 1 1 T.& R.| E.W.Q.!.J.+ + + + + + v.7 b.z.J [ ;.= j : : : : : : l ` :.u.3 n.t 0 m.+ + + + + + M.~.^.v.!.0 @.u /.1 1 1 1 1 1 1 1 1 1 1 m ; ",
"l l l l (.; ; ' ' ' ' ' ' ).4.~ K _.d.`.'.].+ + + + + + v.7 b.z.J [ ;.= j : : : : : : l ` :.u.3 n.t 0 m.+ + + + + + [.~.{.X @ }.|. XC ' ' ' ' ' ' ' ' ' ' ' l .X",
"XXXXXXXXoXoXoXb b b b b b _ S u  .r # OX. o + + + + + + v.7 b.z.J [ ;.= j : : : : : : l ` :.u.3 n.t 0 m.+ + + + + + [.c.{.+X. @XO.-.#Xb b b b b b b b b b b XXv ",
": : : : : : : : : : : : : S.D.$Xo.f.0 %Xm.o + + + + + + v.7 b.z.J [ ;.= j : : : : : : l ` :.u.3 n.t 0 m.+ + + + + + [.c.&Xx.m.i.J & B : : : : : : : : : : : : : ",
": : : : : : : : : : : : : S.D.$Xo.f.0 %Xm.o + + + + + + v.7 b.z.J [ ;.= j : : : : : : l ` :.u.3 n.t 0 m.+ + + + + + [.c.&Xx.m.i.J & B : : : : : : : : : : : : : ",
": : : : : : : : : : : : : S.D.$Xo.f.0 %Xm.o + + + + + + v.7 b.z.J [ ;.= j : : : : : : l ` :.u.3 n.t 0 m.+ + + + + + [.c.&Xx.m.i.J & B : : : : : : : : : : : : : ",
": : : : : : : : : : : : : S.D.$Xo.f.0 %Xm.o + + + + + + v.7 b.z.J [ ;.= j : : : : : : l ` :.u.3 n.t 0 m.+ + + + + + [.c.&Xx.m.i.J & B : : : : : : : : : : : : : ",
": : : : : : : : : : : : : S.D.$Xo.f.0 %Xm.o + + + + + + v.7 b.z.J [ ;.= j : : : : : : l ` :.u.3 n.t 0 m.+ + + + + + [.c.&Xx.m.i.J & B : : : : : : : : : : : : : ",
": : : : : : : : : : : : : S.D.$Xo.f.0 %Xm.o + + + + + + v.7 b.z.J [ ;.= j : : : : : : l ` :.u.3 n.t 0 m.+ + + + + + [.c.&Xx.m.i.J & B : : : : : : : : : : : : : ",
": : : : : : : : : : : : : U.*X4.{ o.| =Xi.C.e.e.e.e.e.e.-X;XP R F n.:X6.D.d d d d d d >X* 3 ,.:X9.|.=X,Xe.e.e.e.e.e.a.W.<X}.i.|.[ * - : : : : : : : : : : : : : ",
": : : : : : : : : : : : : 1X2XC 4.$X<.Q J K %.%.%.%.%.%.| K &.o.g.*.R...u D D D D D D 3X=.~ n.R.t.J  .@.%.%.%.%.%.%.L R +.E J [ ;.= j : : : : : : : : : : : : : ",
": : : : : : : : : : : : : n U.2X*XD.S 4.& F.D D D D D D u ~ ! Q 4XJ &.K | %.%.%.%.%.%.t #.5X|.&.F *.6X=.D D D D D D :Xi -.7X& * = - ; : : : : : : : : : : : : : ",
": : : : : : : : : : : : : > n 1XU.S.N g B :.d d d d d d 8X4.i <.W |.z.H # e.e.e.e.e.e.9X0 i.I z.E 0XqX( d d d d d d ).:.wXeXB - j ; oX: : : : : : : : : : : : : ",
": : : : : : : : : : : : : : : : : : : : : : : : : : : : rX).S :X4 t i.%XX + + + + + + ].'.tXq i.|.[ * - : : : : : : : : : : : : : : : : : : : : : : : : : : : : ",
": : : : : : : : : : : : : : : : : : : : : : : : : : : : rX).S :X4 t i.%XX + + + + + + ].'.tXq i.|.[ * - : : : : : : : : : : : : : : : : : : : : : : : : : : : : ",
": : : : : : : : : : : : : : : : : : : : : : : : : : : : rX).S :X4 t i.%XX + + + + + + ].'.tXq i.|.[ * - : : : : : : : : : : : : : : : : : : : : : : : : : : : : ",
": : : : : : : : : : : : : : : : : : : : : : : : : : : : rX).S :X4 t i.%XX + + + + + + ].'.tXq i.|.[ * - : : : : : : : : : : : : : : : : : : : : : : : : : : : : ",
": : : : : : : : : : : : : : : : : : : : : : : : : : : : rX).S :X4 t i.%XX + + + + + + ].'.tXq i.|.[ * - : : : : : : : : : : : : : : : : : : : : : : : : : : : : ",
": : : : : : : : : : : : : : : : : : : : : : : : : : : : rX).S :X4 t i.%XX + + + + + + ].'.tXq i.|.[ * - : : : : : : : : : : : : : : : : : : : : : : : : : : : : ",
": : : : : : : : : : : : : : : : : : : : : : : : : : : : rX).S :X4 t i.%XX + + + + + + ].'.tXq i.|.[ * - : : : : : : : : : : : : : : : : : : : : : : : : : : : : ",
": : : : : : : : : : : : : : : : : : : : : : : : : : : : rX).S :X4 t i.%XX + + + + + + ].'.tXq i.|.[ * - : : : : : : : : : : : : : : : : : : : : : : : : : : : : ",
": : : : : : : : : : : : : : : : : : : : : : : : : : : : rX).S :X4 t i.%XX + + + + + + ].'.tXq i.|.[ * - : : : : : : : : : : : : : : : : : : : : : : : : : : : : ",
": : : : : : : : : : : : : : : : : : : : : : : : : : : : rX).S :X4 t i.%XX + + + + + + ].'.tXq i.|.[ * - : : : : : : : : : : : : : : : : : : : : : : : : : : : : ",
": : : : : : : : : : : : : : : : : : : : : : : : : : : : rX).S :X4 t i.%XX + + + + + + ].'.tXq i.|.[ * - : : : : : : : : : : : : : : : : : : : : : : : : : : : : ",
": : : : : : : : : : : : : yXc uXx > XXXXoXb b b b b b b M ).* ,.} X.$.U W.e e e e e e iX-Xi.pX1.*.F.D.j.b b b b b b b b oXoXoX> x uXaX: : : : : : : : : : : : : ",
": : : : : : : : : : : : : c x XXz , sXl ; ' k k k k k k 2 d Z 3 F.<.4X2.8 _._._._._._.pX$ R E W 3Xy.) _ k k k k k k 1X1X' ; ; , z > uX: : : : : : : : : : : : : ",
": : : : : : : : : : : : : uXXX.Xl 1Xm rXU.1 h h h h h h g d >XdX4.7XD ~ *.fXfXfXfXfXfX4X% 0X{ D & a T.eXh h h h h h M 1 Y.U.j k l z x : : : : : : : : : : : : : ",
": : : : : : : : : : : : : x z l < U.M A.2 j._ _ _ _ _ _ wX#XV >X8X( 5./ gXqXqXqXqXqXqX8.7.6.3 5.* ) V hX_ _ _ _ _ _ 2Xj.>.2 - Y.k , > : : : : : : : : : : : : : ",
": : : : : : : : : : : : : > , 1XU.S.>.g eX:.#X#X#X#X#X#X#X#X#X#X#X#X#X#X#X#X#X#X#X#X#X#X#X#X#X#X#X#X#X#X#X#X#X#X#X#X).hXwXf B - j ; oX: : : : : : : : : : : : : ",
": : : : : : : : : : : : : .XI.2 hX>XD.S 3 7.qXqXqXqXqXqX& 6.jXa /.) kX#XwX_ _ _ _ _ _ eX:.d *XlXZ ( ;.7.qXqXqXqXqXqX,.gXp / ;.) :.` l : : : : : : : : : : : : : ",
": : : : : : : : : : : : : ; - = * & zX[ n.4 fXfXfXfXfXfX*.0X] -.y.a ) #X_ h h h h h h >.B ).kX) 5.7X3XZ.fXfXfXfXfXfXg.W Q R.0X^ A f m : : : : : : : : : : : : : ",
": : : : : : : : : : : : : m f A ^ 0XW &.t =X_._._._._._.xX5XF n. Xy./.#XN k k k k k k M 2X).T.A ,.<.J %._._._._._._.cXpXxXT t 9.,.C M : : : : : : : : : : : : : ",
": : : : : : : : : : : : : Y.V p ..|.vXbX0 nXe e e e e e 9X;X$ E 6XF.S = ` b b b b b b m 2 hXs S D F 8 G e e e e e e tX%XmXd.0 | <.S N : : : : : : : : : : : : : ",
": : : : : : : : : : : : : S.D.$Xo.f.0 %Xm.o + + + + + + v.7 b.z.J [ ;.= j : : : : : : l ` :.u.3 n.t 0 m.+ + + + + + [.c.&Xx.m.i.J & B : : : : : : : : : : : : : ",
": : : : : : : : : : : : : S.D.$Xo.f.0 %Xm.o + + + + + + v.7 b.z.J [ ;.= j : : : : : : l ` :.u.3 n.t 0 m.+ + + + + + [.c.&Xx.m.i.J & B : : : : : : : : : : : : : ",
": : : : : : : : : : : : : S.D.$Xo.f.0 %Xm.o + + + + + + v.7 b.z.J [ ;.= j : : : : : : l ` :.u.3 n.t 0 m.+ + + + + + [.c.&Xx.m.i.J & B : : : : : : : : : : : : : ",
": : : : : : : : : : : : : S.D.$Xo.f.0 %Xm.o + + + + + + v.7 b.z.J [ ;.= j : : : : : : l ` :.u.3 n.t 0 m.+ + + + + + [.c.&Xx.m.i.J & B : : : : : : : : : : : : : ",
": : : : : : : : : : : : : S.D.$Xo.f.0 %Xm.o + + + + + + v.7 b.z.J [ ;.= j : : : : : : l ` :.u.3 n.t 0 m.+ + + + + + [.c.&Xx.m.i.J & B : : : : : : : : : : : : : ",
": : : : : : : : : : : : : S.D.$Xo.f.0 %Xm.o + + + + + + v.7 b.z.J [ ;.= j : : : : : : l ` :.u.3 n.t 0 m.+ + + + + + [.c.&Xx.m.i.J & B : : : : : : : : : : : : : ",
"oXoXoXoXoXb b b b b b b b g ( MXo.0.b.mXNXX BXBXBXBXBXBX. a._.t 4X$XP.d rX: : : : : : sXh f >X5.} 5XE.6 BXBXBXBXBXBXo B.H.VX  U J 7Xd b b b b b b b b b b b XXv ",
"(.(.(.; ' ' 1Xk k k k k k hX5.3XfXCXi.d.OXm.{.{.{.{.{.{.  -X5 5X% zXa :.I.: : : : : : sX1 B T.a 3X&.bXiX{.{.{.{.{.{.X '.ZX6 OXf.X.-.lXk k k k k k k k k k k (.n ",
"j j j U.Y.1 M h h h h h h kX/ u J 8 r r.a.6 !.!.!.!.!.!.%Xb.xX&.6XqXA f m : : : : : : , Y._ V * $XJ Y W.!.!.!.!.!.!.VXe tX%XmXpXX.AXu.h h h h h h h h h h h rX' ",
"S.S.S.2 N j.2X_ _ _ _ _ _ u.gX=.J T I E.C.iXe e e e e e W.H $.X.} & 8XB < : : : : : : n U.2X= 8Xi W $ 0 e e e e e e Q.e.w 9XC.P F $XdX_ _ _ _ _ _ _ _ _ _ _ S.j ",
"k.k.k.eXwX:.).#X#X#X#X#X#X( ^ <.X.1.=XU ,XW.e.e.e.e.e.e.r.pXR t.3Xy.) _ k : : : : : : n rX>.).) 7XZ.| i.e.e.e.e.e.e.nX9Xd.G }.vXF ] jX#X#X#X#X#X#X#X#X#X#X#X_ ` ",
"5.5.5.3 6.7.8.qXqXqXqXqXqXD <.9.g.&.K | %.8 Y Y Y Y Y Y #.J 6X Xy.D.).S.(.: : : : : : b 1XM 2X).a i R.|.Y Y Y Y Y Y CXxXz.$ %.|.g.! 3XqXqXqXqXqXqXqXqXqXqXqXl.kX",
"<.<.<.n.9.4 g.fXfXfXfXfXfXJ F g.4XW t.4 4 *.Q Q Q Q Q Q <.:XgXl.) ).>.rXn : : : : : : XXsXm M >.h.( 8.3XQ Q Q Q Q Q *.*.*.*.4 W 4Xg.X.fXfXfXfXfXfXfXfXfXfXfX{ / ",
"5X5X5Xt vX=Xf._._._._._._.=Xt O.t...u $X-.& / / / / / / S 8XlX)._ S.rX(.XX: : : : : : x b sX1XrX2 :.T.* / / / / / / y.gX8.^ -.} W 2.8 _._._._._._._._._._._.|.u ",
"E.E.E.0 W.nX`.e e e e e e q cX@.*.$X8.5.Z = g g g g g g N A.1 rXk (.n XXuX: : : : : : c x XXb n ; I.M - g g g g g g f d h.C Z F.t.$ 0 e e e e e e e e e e e _.fX",
"      . X o O + + + + + + @ # $ % & * = - ; : : : : : : : : : : : : : : : : : : : : : : : : : : : : : : : : : : : : > , < 1 2 3 4 5 6 + + + + + + + + + + + 7 8 ",
"      . X o O + + + + + + @ # $ % & * = - ; : : : : : : : : : : : : : : : : : : : : : : : : : : : : : : : : : : : : > , < 1 2 3 4 5 6 + + + + + + + + + + + 7 8 ",
"      . X o O + + + + + + @ # $ % & * = - ; : : : : : : : : : : : : : : : : : : : : : : : : : : : : : : : : : : : : > , < 1 2 3 4 5 6 + + + + + + + + + + + 7 8 ",
"      . X o O + + + + + + @ # $ % & * = - ; : : : : : : : : : : : : : : : : : : : : : : : : : : : : : : : : : : : : > , < 1 2 3 4 5 6 + + + + + + + + + + + 7 8 ",
"      . X o O + + + + + + @ # $ % & * = - ; : : : : : : : : : : : : : : : : : : : : : : : : : : : : : : : : : : : : > , < 1 2 3 4 5 6 + + + + + + + + + + + 7 8 ",
"      . X o O + + + + + + @ # $ % & * = - ; : : : : : : : : : : : : : : : : : : : : : : : : : : : : : : : : : : : : > , < 1 2 3 4 5 6 + + + + + + + + + + + 7 8 ",
"      . X o O + + + + + + @ # $ % & * = - ; : : : : : : : : : : : : : : : : : : : : : : : : : : : : : : : : : : : : > , < 1 2 3 4 5 6 + + + + + + + + + + + 7 8 ",
"      . X o O + + + + + + @ # $ % & * = - ; : : : : : : : : : : : : : : : : : : : : : : : : : : : : : : : : : : : : > , < 1 2 3 4 5 6 + + + + + + + + + + + 7 8 ",
"      . X o O + + + + + + @ # $ % & * = - ; : : : : : : : : : : : : : : : : : : : : : : : : : : : : : : : : : : : : > , < 1 2 3 4 5 6 + + + + + + + + + + + 7 8 ",
"      . X o O + + + + + + @ # $ % & * = - ; : : : : : : : : : : : : : : : : : : : : : : : : : : : : : : : : : : : : > , < 1 2 3 4 5 6 + + + + + + + + + + + 7 8 ",
"      . X o O + + + + + + @ # $ % & * = - ; : : : : : : : : : : : : : : : : : : : : : : : : : : : : : : : : : : : : > , < 1 2 3 4 5 6 + + + + + + + + + + + 7 8 ",
"      . X o O + + + + + + @ # $ % & * = - ; : : : : : : : : : : : : : : : : : : : : : : : : : : : : : : : : : : : : > , < 1 2 3 4 5 6 + + + + + + + + + + + 7 8 ",
"      . X o O + + + + + + @ # $ % & * = - ; : : : : : : : : : : : : : : : : : : : : : : : : : : : : : : : : : : : : > , < 1 2 3 4 5 6 + + + + + + + + + + + 7 8 "
};
